<svg width="53" height="150" viewBox="0 0 53 150" fill="none" xmlns="http://www.w3.org/2000/svg">
<line x1="27" y1="8.74228e-08" x2="27" y2="86" stroke="#D434FE" stroke-width="4"/>
<rect y="97" width="53" height="53" rx="26.5" fill="url(#paint0_linear_0_1)"/>
<path d="M28.448 131.288C26.912 131.288 25.576 130.968 24.44 130.328C23.32 129.688 22.456 128.752 21.848 127.52C21.24 126.288 20.936 124.768 20.936 122.96C20.936 121.024 21.296 119.384 22.016 118.04C22.752 116.696 23.76 115.672 25.04 114.968C26.336 114.264 27.824 113.912 29.504 113.912C30.4 113.912 31.256 114.008 32.072 114.2C32.888 114.392 33.592 114.68 34.184 115.064L32.744 117.92C32.28 117.6 31.784 117.384 31.256 117.272C30.728 117.144 30.176 117.08 29.6 117.08C28.144 117.08 26.992 117.52 26.144 118.4C25.296 119.28 24.872 120.584 24.872 122.312C24.872 122.6 24.872 122.92 24.872 123.272C24.888 123.624 24.936 123.976 25.016 124.328L23.936 123.32C24.24 122.696 24.632 122.176 25.112 121.76C25.592 121.328 26.16 121.008 26.816 120.8C27.488 120.576 28.224 120.464 29.024 120.464C30.112 120.464 31.088 120.68 31.952 121.112C32.816 121.544 33.504 122.152 34.016 122.936C34.544 123.72 34.808 124.64 34.808 125.696C34.808 126.832 34.52 127.824 33.944 128.672C33.384 129.504 32.624 130.152 31.664 130.616C30.72 131.064 29.648 131.288 28.448 131.288ZM28.232 128.384C28.776 128.384 29.256 128.288 29.672 128.096C30.104 127.888 30.44 127.592 30.68 127.208C30.92 126.824 31.04 126.384 31.04 125.888C31.04 125.12 30.776 124.512 30.248 124.064C29.736 123.6 29.048 123.368 28.184 123.368C27.608 123.368 27.104 123.48 26.672 123.704C26.24 123.912 25.896 124.208 25.64 124.592C25.4 124.96 25.28 125.392 25.28 125.888C25.28 126.368 25.4 126.8 25.64 127.184C25.88 127.552 26.216 127.848 26.648 128.072C27.08 128.28 27.608 128.384 28.232 128.384Z" fill="white"/>
<defs>
<linearGradient id="paint0_linear_0_1" x1="53" y1="97" x2="0" y2="97" gradientUnits="userSpaceOnUse">
<stop stop-color="#903AFF"/>
<stop offset="1" stop-color="#D434FE"/>
</linearGradient>
</defs>
</svg>
