<svg width="53" height="150" viewBox="0 0 53 150" fill="none" xmlns="http://www.w3.org/2000/svg">
<line x1="27" y1="8.74228e-08" x2="27" y2="86" stroke="#D434FE" stroke-width="4"/>
<rect y="97" width="53" height="53" rx="26.5" fill="url(#paint0_linear_0_1)"/>
<path d="M21.792 132V129.48L28.272 123.36C28.784 122.896 29.16 122.48 29.4 122.112C29.64 121.744 29.8 121.408 29.88 121.104C29.976 120.8 30.024 120.52 30.024 120.264C30.024 119.592 29.792 119.08 29.328 118.728C28.88 118.36 28.216 118.176 27.336 118.176C26.632 118.176 25.976 118.312 25.368 118.584C24.776 118.856 24.272 119.28 23.856 119.856L21.024 118.032C21.664 117.072 22.56 116.312 23.712 115.752C24.864 115.192 26.192 114.912 27.696 114.912C28.944 114.912 30.032 115.12 30.96 115.536C31.904 115.936 32.632 116.504 33.144 117.24C33.672 117.976 33.936 118.856 33.936 119.88C33.936 120.424 33.864 120.968 33.72 121.512C33.592 122.04 33.32 122.6 32.904 123.192C32.504 123.784 31.912 124.448 31.128 125.184L25.752 130.248L25.008 128.832H34.488V132H21.792Z" fill="white"/>
<defs>
<linearGradient id="paint0_linear_0_1" x1="53" y1="97" x2="0" y2="97" gradientUnits="userSpaceOnUse">
<stop stop-color="#903AFF"/>
<stop offset="1" stop-color="#D434FE"/>
</linearGradient>
</defs>
</svg>
