<svg width="53" height="150" viewBox="0 0 53 150" fill="none" xmlns="http://www.w3.org/2000/svg">
<line x1="27" y1="8.74228e-08" x2="27" y2="86" stroke="#D434FE" stroke-width="4"/>
<rect y="97" width="53" height="53" rx="26.5" fill="url(#paint0_linear_0_1)"/>
<path d="M27.384 132.288C26.216 132.288 25.056 132.136 23.904 131.832C22.752 131.512 21.776 131.064 20.976 130.488L22.488 127.512C23.128 127.976 23.872 128.344 24.72 128.616C25.568 128.888 26.424 129.024 27.288 129.024C28.264 129.024 29.032 128.832 29.592 128.448C30.152 128.064 30.432 127.536 30.432 126.864C30.432 126.224 30.184 125.72 29.688 125.352C29.192 124.984 28.392 124.8 27.288 124.8H25.512V122.232L30.192 116.928L30.624 118.32H21.816V115.2H33.576V117.72L28.92 123.024L26.952 121.896H28.08C30.144 121.896 31.704 122.36 32.76 123.288C33.816 124.216 34.344 125.408 34.344 126.864C34.344 127.808 34.096 128.696 33.6 129.528C33.104 130.344 32.344 131.008 31.32 131.52C30.296 132.032 28.984 132.288 27.384 132.288Z" fill="white"/>
<defs>
<linearGradient id="paint0_linear_0_1" x1="53" y1="97" x2="0" y2="97" gradientUnits="userSpaceOnUse">
<stop stop-color="#903AFF"/>
<stop offset="1" stop-color="#D434FE"/>
</linearGradient>
</defs>
</svg>
