<svg width="53" height="150" viewBox="0 0 53 150" fill="none" xmlns="http://www.w3.org/2000/svg">
<line x1="27" y1="8.74228e-08" x2="27" y2="86" stroke="#D434FE" stroke-width="4"/>
<rect y="97" width="53" height="53" rx="26.5" fill="url(#paint0_linear_0_1)"/>
<path d="M26.648 131.288C25.48 131.288 24.32 131.136 23.168 130.832C22.032 130.512 21.056 130.064 20.24 129.488L21.776 126.512C22.416 126.976 23.152 127.344 23.984 127.616C24.832 127.888 25.688 128.024 26.552 128.024C27.528 128.024 28.296 127.832 28.856 127.448C29.416 127.064 29.696 126.528 29.696 125.84C29.696 125.408 29.584 125.024 29.36 124.688C29.136 124.352 28.736 124.096 28.16 123.92C27.6 123.744 26.808 123.656 25.784 123.656H21.488L22.352 114.2H32.6V117.32H23.744L25.76 115.544L25.16 122.288L23.144 120.512H26.696C28.36 120.512 29.696 120.744 30.704 121.208C31.728 121.656 32.472 122.272 32.936 123.056C33.4 123.84 33.632 124.728 33.632 125.72C33.632 126.712 33.384 127.632 32.888 128.48C32.392 129.312 31.624 129.992 30.584 130.52C29.56 131.032 28.248 131.288 26.648 131.288Z" fill="white"/>
<defs>
<linearGradient id="paint0_linear_0_1" x1="53" y1="97" x2="0" y2="97" gradientUnits="userSpaceOnUse">
<stop stop-color="#903AFF"/>
<stop offset="1" stop-color="#D434FE"/>
</linearGradient>
</defs>
</svg>
